<?xml version="1.0" encoding="utf-8"?>
<!-- Generator: Adobe Illustrator 22.1.0, SVG Export Plug-In . SVG Version: 6.00 Build 0)  -->
<svg width="51px" height="44px" version="1.1" id="Слой_1" xmlns="http://www.w3.org/2000/svg" xmlns:xlink="http://www.w3.org/1999/xlink" x="0px" y="0px"
	 viewBox="0 0 51 44.4" style="enable-background:new 0 0 51 44.4;" xml:space="preserve">
<style type="text/css">
	.st0{fill:#C6C6C6;}
	.st1{fill-rule:evenodd;clip-rule:evenodd;fill:#C6C6C6;}
	.st2{fill:#D01414;}
	.st3{fill:#E1E1E1;}
	.st4{fill:#E70000;}
	.st5{fill:#FEFEFE;}
	.st6{fill:#1877F2;}
	.st7{fill:#FFFFFF;}
	.st8{clip-path:url(#SVGID_2_);}
	.st9{fill:#0077FF;}
	.st10{fill:url(#Oval_1_);}
	.st11{fill:url(#SVGID_3_);}
	.st12{fill-rule:evenodd;clip-rule:evenodd;fill:#FFFFFF;}
	.st13{fill-rule:evenodd;clip-rule:evenodd;fill:#048C45;}
	.st14{fill-rule:evenodd;clip-rule:evenodd;fill:#088B44;}
	.st15{fill-rule:evenodd;clip-rule:evenodd;fill:#CD2027;}
</style>
<g>
	<polygon class="st12" points="18.6,41.9 17.4,42.8 14.8,43.6 0.7,7.8 2.1,4.6 4.9,6.4 4.9,7.2 17,2.2 24.5,1 32.8,1.6 39.3,3.5 
		49.4,8.3 50.2,10.1 38.6,37.5 35.6,38.3 34.2,42.3 29.5,41.7 25.5,40.7 25.5,35.7 21.5,35.9 17,36.5 	"/>
	<path class="st13" d="M26.2,1.6c7.9,0,15.6,2.7,23.1,7.8L38.3,37c0,0-0.1,0-0.1,0c-1.2,0.1-2.3,0.2-3.5,0.3
		c-0.6,1.1-1.2,3.3-1.2,4.4c-1.9-0.9-3.8-1.3-5.4-1.3c-0.5,0-1,0-1.4,0.1c0,0-0.1,0-0.1,0c-0.4,0-0.6-0.3-0.5-0.5l0.4-5.4
		c-0.2,0-0.4,0-0.6,0c-3.4,0-6.8,0.5-10.4,1.6l2.3,5.7c-0.7,0.6-1.5,0.9-2.4,0.9c0,0-0.1,0-0.1,0C11,31.7,6.7,20.7,2.5,9.6
		c0,0,0,0,0-0.1C1.3,8.8,1.6,7.2,2.1,5.6C3.4,6.2,4.3,7,4.3,8.3c0,0,0,0,0,0l0.1,0.2C11.9,3.8,19.1,1.6,26.2,1.6L26.2,1.6z M27,38.3
		L27,38.3c3-1.1,6.3-1.7,9.5-1.9c-3-1-6.1-1.6-9.2-1.7L27,38.3L27,38.3z M26.9,39.7L26.9,39.7c0.4,0,0.7,0,1.1,0
		c1.5,0,3.2,0.2,5.2,1.1c0-0.9,0.5-2.2,1-3.3c-2.5,0.3-5,0.9-7.3,1.7L26.9,39.7L26.9,39.7z M26.2,0L26.2,0c-7,0-14,2.1-21,6.1
		c-0.5-0.8-1.3-1.4-2.4-2C2.6,4.1,2.4,4,2.1,4C1.9,4,1.7,4,1.5,4.1C1,4.3,0.7,4.7,0.6,5.1C0.3,5.9,0,6.9,0,7.9c0,1.2,0.5,2,1.1,2.5
		c1.7,4.5,3.4,8.9,5.1,13.4c2.5,6.5,5,13,7.5,19.6c0.2,0.6,0.8,1,1.5,1c0.1,0,0.1,0,0.2,0c1.4,0,2.6-0.4,3.5-1.3
		c0.5-0.4,0.7-1.1,0.4-1.8l-1.6-4.1c2.4-0.6,4.7-1,7-1l-0.3,3.7c0,0,0,0,0,0c0,0.6,0.2,1.2,0.6,1.6c0.4,0.4,1,0.7,1.6,0.7
		c0.1,0,0.2,0,0.4,0c0.4-0.1,0.8-0.1,1.2-0.1c1.5,0,3.1,0.4,4.7,1.2c0.2,0.1,0.5,0.2,0.7,0.2c0.3,0,0.6-0.1,0.9-0.2
		c0.5-0.3,0.8-0.8,0.8-1.4c0-0.7,0.3-1.9,0.7-2.9c0.8-0.1,1.6-0.2,2.5-0.2c0.2,0,0.3,0,0.5-0.1c0.1,0,0.2,0,0.2-0.1
		c0.4-0.2,0.7-0.5,0.9-0.9l11-27.6c0.3-0.7,0-1.5-0.6-1.9C42.3,2.7,34.2,0,26.2,0z"/>
	<path class="st14" d="M11.1,25.7l3.4,9c0.8-0.3,1.5-0.5,2.3-0.7l1.6-0.4c0.8-0.2,1.6-0.3,2.4-0.5c0.8-0.1,1.6-0.2,2.4-0.3
		c0.8-0.1,1.6-0.1,2.3-0.1c0.8,0,1.6,0,2.3,0c0.8,0.1,1.5,0.1,2.3,0.2c0.8,0.1,1.5,0.2,2.3,0.4c0.8,0.2,1.5,0.3,2.3,0.5
		c0.9,0.3,1.9,0.6,2.8,0.9l3.6-8.9C31.3,21.3,21.3,21,11.1,25.7z M33.4,27.5c0.2,0,0.4,0,0.6-0.1c-0.6,0.6-1.2,1.2-4.7,1.1
		c-0.1,0,2.7,0.1,2.6,0.2c-0.8,0.6-1.3,0.8-1.9,0.8c-0.5,0-0.8,0.1-3.4-0.3c0.7,0.2,2.4,0.4,2.6,0.4c-2,1-3.7,1.1-6.6-0.1
		c0.2,0.1,0.3,0.3,2.4,0.9c-0.9,0.2-1.8,0.4-2.7,0.4c-0.7,0-1.6-0.1-2.2-0.4c-0.3-0.1-0.4-0.4-0.7-0.4c-0.3,0-0.5,0.3-0.7,0.5
		c-0.4,0.5-0.7,1.1-1.1,1.6c-0.1-0.1-0.2-0.1-0.3-0.2c-0.1-0.1-0.3-0.1-0.2-0.3c0.3-0.5,0.6-0.9,1-1.3c0.5-0.6,1.1-1,1.6-1.6
		c0,0.1-0.2,0.6-0.2,0.7c0.5-1.2,1.4-1.5,2.1-1.8c0.9-0.3,1.8-0.5,2.7-0.6c-0.2,0.3-0.5,0.6-1.3,1.4c1.3-1.2,3.5-2,4.8-2
		c-0.7,0.6-1.4,1.1-2.2,1.9c1.8-1.3,1.7-1.2,2.1-1.4c0.9-0.5,2-0.7,3-0.7c-0.2,0.2-1.2,0.7-2.1,1.7c2.8-2.4,3.5-2.3,4.9-2.7
		c-0.2,0.3-0.3,0.6-0.5,0.9c0.9-0.7,2.7-1.3,2.8-1.5C35.2,25.8,34.4,26.9,33.4,27.5z"/>
	<g>
		<path class="st15" d="M15.4,16c-0.1-0.2-0.1-0.4-0.3-0.5c-0.2-0.2-0.4-0.2-0.8-0.1c-0.3,0.1-0.5,0.3-0.5,0.6c0,0.2,0,0.4,0.1,0.7
			l0.3,1c0.1,0.4,0.3,0.6,0.5,0.6c0.1,0,0.3,0,0.4,0c0.3-0.1,0.5-0.3,0.5-0.5c0-0.2,0-0.3,0-0.5L15.4,16z"/>
		<path class="st15" d="M22.6,11.2c-0.2-0.3-0.4-0.4-0.7-0.3c-0.2,0-0.4,0.2-0.4,0.4c0,0.2,0,0.5,0,0.9l0,0.3c0.1,0.5,0.1,0.8,0.2,1
			c0.1,0.3,0.3,0.5,0.6,0.4c0.2,0,0.4-0.2,0.5-0.5c0.1-0.3,0.1-0.7,0.1-1.2C23,11.8,22.8,11.5,22.6,11.2z"/>
		<path class="st15" d="M45.7,9.1l-1.3-0.7L43,7.7l-1.4-0.6l-1.4-0.6L39,5.9l-1.4-0.5L36.3,5l-1.4-0.4l-1.4-0.3L32.2,4l-1.4-0.2
			l-1.4-0.2l-1.4-0.1l-1.4,0l-1.4,0L24,3.6l-1.4,0.1l-1.4,0.2l-1.4,0.2l-1.4,0.3l-1.4,0.4l-1.4,0.4l-1.4,0.5l-1.4,0.5l-1.4,0.6
			L10,7.6L8.6,8.3L7.2,9.1L5.7,10l-0.8,0.5l5.6,13.7c4.4-2.1,9.7-3.4,15.5-3.4c5.9,0,11.4,1.3,15.9,3.5l5.9-14L45.7,9.1z M18,17.9
			c-0.2,0.7-0.8,1.2-1.7,1.6l-0.7,0.3l-1.2,0.3c-0.1,0-0.3,0.1-0.5,0.2c-0.2,0.1-0.4,0.2-0.6,0.2l-0.8,0.3c-0.2,0.1-0.3,0-0.4-0.2
			c0-0.1,0-0.2,0-0.4c0-0.3,0-0.8-0.1-1.3c-0.1-0.5-0.2-1-0.3-1.4l-0.9-3.2c-0.1-0.4-0.2-0.8-0.3-1.1c-0.1-0.3-0.2-0.6-0.4-0.9
			c0-0.1-0.2-0.3-0.3-0.6c-0.1-0.1-0.1-0.2-0.1-0.3c0-0.2,0-0.3,0.2-0.3c0.1,0,0.2-0.1,0.4-0.1c0.2-0.1,0.4-0.1,0.5-0.1l2-0.6
			l1.2-0.4l0.4-0.2c0.2-0.1,0.4-0.2,0.6-0.2c0.2-0.1,0.3-0.1,0.3-0.2c0.1,0,0.2,0,0.3,0c0.1,0,0.1,0.1,0.1,0.2l0.1,0.5l0.1,0.4
			c0,0.2,0.1,0.4,0.2,0.6c0.1,0.2,0.1,0.3,0.1,0.3c0.1,0.2,0.1,0.3,0.1,0.4c0,0.1-0.1,0.2-0.2,0.2c-0.1,0-0.2,0-0.4,0
			c-0.3-0.1-0.5-0.1-0.5-0.2c-0.2,0-0.5,0-0.7,0c-0.2,0-0.4,0.1-0.6,0.1c-0.6,0.2-0.9,0.4-1,0.7c-0.1,0.2,0,0.5,0.1,0.8l0.2,0.5
			c0,0.2,0.1,0.2,0.3,0.2c0,0,0.1-0.1,0.3-0.2c0.2-0.1,0.4-0.3,0.5-0.3c0.2-0.1,0.4-0.2,0.6-0.2c0.6-0.2,1.1-0.2,1.5-0.1
			c0.6,0.2,1,0.9,1.3,1.9l0.3,1.2C18.2,16.9,18.2,17.5,18,17.9z M24.6,14.6c-0.4,0.4-1,0.7-1.8,1c-0.2,0-0.4,0.1-0.6,0.2
			C22.1,15.7,22,15.8,22,16c0,0.2,0.1,0.5,0.2,0.8c0.1,0.3,0.3,0.5,0.4,0.6c0.1,0.1,0.2,0.2,0.4,0.3c0.1,0.1,0.2,0.2,0.2,0.3
			c0,0.2-0.1,0.3-0.3,0.3c-0.3,0-0.5,0.1-0.6,0.1c-0.5,0-0.9,0.1-1.1,0.1c-0.3,0-0.6,0.1-0.8,0.2c-0.2,0.1-0.4,0.1-0.6,0.1
			c-0.1,0-0.2,0-0.3,0c-0.1,0-0.1-0.1-0.1-0.2c0-0.4,0.1-0.8,0.1-1.2c0-0.4,0-1-0.1-1.9l-0.4-3.6c-0.1-1.2-0.3-2-0.3-2.2
			c-0.1-0.2-0.1-0.5-0.1-0.6c0-0.2,0-0.3,0.1-0.3c0.1-0.1,0.2-0.1,0.5-0.1c0.1,0,0.2,0,0.3-0.1c0.1,0,0.3,0,0.4-0.1
			c1-0.2,1.8-0.2,2.2-0.2c0.8,0,1.4,0.2,2,0.6c0.4,0.3,0.7,0.7,1,1.2c0.2,0.4,0.3,0.9,0.4,1.4C25.5,12.8,25.2,13.9,24.6,14.6z
			 M32.4,9.2c0,0.2-0.1,0.4-0.1,0.5c0,0.3,0,0.5,0,0.7c0,0.2,0,0.3,0,0.3c0,0.2-0.1,0.3-0.1,0.4c-0.1,0.1-0.2,0.1-0.3,0.1
			c-0.1,0-0.2-0.1-0.3-0.1c0,0-0.1-0.1-0.2-0.2c-0.1-0.1-0.3-0.2-0.4-0.3c-0.1-0.1-0.3-0.1-0.5-0.1c-0.4-0.1-0.7,0-0.9,0.3
			c-0.2,0.2-0.3,0.8-0.4,1.6L29,13.6c-0.1,0.8-0.1,1.4,0,1.7c0.1,0.6,0.5,0.9,1.1,1c0.2,0,0.4,0,0.5,0c0.2,0,0.3-0.1,0.4-0.2
			c0.1-0.1,0.2-0.1,0.3-0.1c0.1,0,0.1,0,0.2,0c0.2,0,0.2,0.1,0.2,0.3L31.6,17l-0.1,0.7c0,0.2-0.1,0.4-0.3,0.5
			c-0.3,0.1-0.9,0.2-1.6,0.1c-1.4-0.2-2.3-0.7-2.7-1.6c-0.3-0.7-0.5-1.6-0.3-2.8l0.2-2.2c0.1-1.3,0.4-2.2,0.8-2.7
			c0.6-0.9,1.6-1.3,3-1.1c0.7,0.1,1.3,0.2,1.5,0.4c0.3,0.1,0.4,0.3,0.4,0.5C32.5,8.8,32.5,9,32.4,9.2z M43.4,12.2
			c-0.1,0.3-0.2,0.5-0.4,0.8c-0.2,0.2-0.4,0.7-0.6,1.3l-1.3,4.2c-0.2,0.6-0.3,1.2-0.4,1.8c0,0.2,0,0.4-0.1,0.6c0,0.2,0,0.4-0.1,0.5
			c0,0.1-0.1,0.1-0.1,0.2c-0.1,0-0.1,0-0.3,0c-0.1,0-0.2-0.1-0.5-0.2c-0.2-0.1-0.5-0.2-0.7-0.3c-0.3-0.1-0.5-0.2-0.7-0.2
			c-0.2,0-0.3-0.1-0.5-0.2c-0.2-0.1-0.3-0.2-0.3-0.4c0.2-0.3,0.4-0.7,0.6-1.1c0.2-0.4,0.4-0.8,0.6-1.3l0.8-2.5c0.1-0.2,0-0.3,0-0.3
			c0,0-0.1,0-0.3,0.1c-0.1,0.1-0.2,0.2-0.3,0.2c-0.2,0.1-0.3,0.3-0.5,0.4c-0.2,0.1-0.4,0.2-0.5,0.1c-0.2-0.1-0.3-0.2-0.3-0.3
			c-0.1-0.1-0.1-0.4-0.2-0.8c0-0.1,0-0.2-0.1-0.4c0-0.1-0.1-0.2-0.1-0.2c0,0-0.1,0-0.1,0c0,0,0,0.1-0.1,0.2l-0.8,2.5
			c-0.2,0.5-0.3,1-0.3,1.4c0,0.2,0,0.4,0,0.8c0,0.2,0,0.4-0.1,0.5c0,0.1-0.1,0.1-0.1,0.2c-0.1,0-0.2,0-0.3,0c-0.1,0-0.2-0.1-0.4-0.2
			c-0.2-0.1-0.5-0.2-0.7-0.3c-0.3-0.1-0.5-0.2-0.7-0.2c-0.2,0-0.3-0.1-0.5-0.2c-0.1,0-0.1-0.1-0.2-0.1c-0.1-0.1-0.1-0.2,0-0.3
			c0-0.1,0.1-0.1,0.1-0.2c0.2-0.4,0.4-0.6,0.5-0.7c0.1-0.1,0.2-0.4,0.3-0.9c0.2-0.5,0.3-0.8,0.4-1.1l1.2-3.8
			c0.1-0.3,0.2-0.6,0.2-0.9c0.1-0.3,0.1-0.5,0.1-0.7c0-0.2,0-0.3,0-0.5c0-0.2,0-0.3,0-0.3c0-0.1,0.1-0.2,0.2-0.2c0.1,0,0.2,0,0.2,0
			c0.2,0.1,0.4,0.2,0.5,0.2c0.1,0.1,0.3,0.2,0.5,0.2c0.3,0.1,0.5,0.2,0.6,0.2c0.1,0,0.2,0,0.3,0.1c0.2,0.1,0.3,0.2,0.3,0.5
			c0,0.2,0,0.5,0,0.7c0,0.4,0.1,0.7,0.1,0.9c0.1,0.3,0.2,0.5,0.4,0.6c0.1,0,0.2,0,0.4-0.1c0.2-0.1,0.5-0.3,0.8-0.6
			c0.4-0.4,0.7-0.7,0.8-0.7c0.1-0.1,0.3-0.1,0.4,0c0.2,0.1,0.3,0.1,0.4,0.2c0.1,0.1,0.2,0.1,0.4,0.2c0.3,0.1,0.5,0.2,0.6,0.2
			c0.1,0,0.3,0.1,0.5,0.1c0.1,0,0.2,0.1,0.2,0.2C43.4,12,43.5,12.1,43.4,12.2z"/>
	</g>
</g>
</svg>
